<?xml version="1.0" encoding="UTF-8"?>
<!DOCTYPE svg PUBLIC "-//W3C//DTD SVG 1.1//EN" "http://www.w3.org/Graphics/SVG/1.1/DTD/svg11.dtd">
<svg xmlns="http://www.w3.org/2000/svg" xmlns:xlink="http://www.w3.org/1999/xlink" version="1.1" width="1200" height="600">
<rect fill="#c00" width="1200" height="600"/>
<path fill="#ffd700" d="m 191.6,61.4 -27,0 21.8,16 -8.2,25.6 21.8,-15.8 21.8,15.8 -8.2,-25.6 21.8,-16 -27,0 -8.4,-25.8 -8.4,25.8 z m 8.4,-9.8 4.8,14.8 15.4,0 -12.4,9 4.72,14.7 -12.52,-9.1 -12.52,9.1 4.72,-14.7 -12.4,-9 15.4,0 4.8,-14.8 z"/>
<path fill="#ffd700" d="m 135.6,159.8 17.4,17.4 14.2,-14.6 c 31.6,32.6 63.2,65.4 94.8,98 7,-1.6 10.8,-4.4 13,-12.4 l -97.4,-95.8 19.6,-17.6 -28.6,-7.8 -33,32.8 0,0 z"/>
<path fill="#ffd700" d="m 200.2,110.6 c 42,15.4 68.4,50.6 68.56,76.6 0.44,57.4 -62.16,85 -102.56,38.8 l -2.8,2 0.6,5 c -12.2,-1.2 -23.2,36.2 -36.4,25.8 -12,-15.2 21.2,-22.2 24.6,-37.6 l 4.8,0.4 4,-4.2 3.8,0.6 4.8,-5 c 39.4,41.6 89.2,9.4 82.2,-32 -5,-31.8 -25,-50 -51.8,-70.4 l 0.2,0 0,0 0,0 0,0 0,0 0,0 z"/>
</svg>
