{
    "asset" : {
        "generator" : "Khronos glTF Blender I/O v3.4.50",
        "version" : "2.0"
    },
    "extensionsUsed" : [
        "KHR_materials_specular",
        "KHR_materials_ior"
    ],
    "scene" : 0,
    "scenes" : [
        {
            "name" : "marble",
            "nodes" : [
                34
            ]
        }
    ],
    "nodes" : [
        {
            "name" : "RightEarTip",
            "rotation" : [
                -0.40846189856529236,
                -0.29422518610954285,
                0.8619480729103088,
                0.06029905751347542
            ],
            "scale" : [
                0.9999999403953552,
                1.0000001192092896,
                1.0000004768371582
            ],
            "translation" : [
                -1.4959988594055176,
                0.39384153485298157,
                -2.7080562114715576
            ]
        },
        {
            "children" : [
                0
            ],
            "name" : "RightEar",
            "rotation" : [
                0.41564685106277466,
                -0.5357797145843506,
                -0.6553106904029846,
                0.33278486132621765
            ],
            "scale" : [
                1,
                1,
                1.0000001192092896
            ],
            "translation" : [
                12.095174789428711,
                4.158372402191162,
                7.369926929473877
            ]
        },
        {
            "name" : "jiggle_hair4",
            "rotation" : [
                0.7023352384567261,
                0.03984326124191284,
                -0.18903487920761108,
                0.6851302981376648
            ],
            "scale" : [
                1.0000001192092896,
                1.0000001192092896,
                1.0000001192092896
            ],
            "translation" : [
                -1.0590879917144775,
                -9.44727897644043,
                11.488814353942871
            ]
        },
        {
            "children" : [
                2
            ],
            "name" : "jiggle_hair3",
            "rotation" : [
                0.3957716226577759,
                0.16600193083286285,
                -0.663024365901947,
                0.6133571267127991
            ],
            "scale" : [
                1.0000001192092896,
                1.0000001192092896,
                1
            ],
            "translation" : [
                16.551776885986328,
                -14.052075386047363,
                1.1419302225112915
            ]
        },
        {
            "name" : "LeftEarTip",
            "rotation" : [
                -0.40846192836761475,
                0.294224351644516,
                -0.861948549747467,
                0.06029790639877319
            ],
            "scale" : [
                0.9999998807907104,
                0.9999997615814209,
                0.9999998807907104
            ],
            "translation" : [
                1.4959971904754639,
                0.3938375413417816,
                -2.708047866821289
            ]
        },
        {
            "children" : [
                4
            ],
            "name" : "LeftEar",
            "rotation" : [
                -0.6553140878677368,
                -0.3327863812446594,
                0.4156442880630493,
                0.5357765555381775
            ],
            "scale" : [
                1,
                1,
                1.000000238418579
            ],
            "translation" : [
                12.095260620117188,
                4.15833854675293,
                -7.369856357574463
            ]
        },
        {
            "name" : "jiggle_hair5",
            "rotation" : [
                -0.5850099325180054,
                0.38581064343452454,
                -0.1285267472267151,
                0.7017083168029785
            ],
            "scale" : [
                0.9999999403953552,
                0.9999999403953552,
                0.9999998807907104
            ],
            "translation" : [
                4.245572566986084,
                16.486587524414062,
                -17.244285583496094
            ]
        },
        {
            "children" : [
                6
            ],
            "name" : "HairBack1",
            "rotation" : [
                -0.21538227796554565,
                0.5193536877632141,
                0.7518311738967896,
                0.3444302976131439
            ],
            "scale" : [
                1,
                0.9999997019767761,
                1
            ],
            "translation" : [
                1.934073805809021,
                4.260321140289307,
                3.1809451580047607
            ]
        },
        {
            "children" : [
                1,
                3,
                5,
                7
            ],
            "name" : "Head",
            "rotation" : [
                9.086302270588931e-07,
                1.5923825458230567e-06,
                0.06375174224376678,
                0.9979658722877502
            ],
            "scale" : [
                0.9999999403953552,
                0.9999999403953552,
                1
            ],
            "translation" : [
                6.337057113647461,
                0.08317756652832031,
                2.9172890208428726e-05
            ]
        },
        {
            "children" : [
                8
            ],
            "name" : "Neck",
            "rotation" : [
                -1.27122928006429e-06,
                4.978448373549327e-07,
                0.4065094292163849,
                0.9136465787887573
            ],
            "scale" : [
                1,
                1.0000001192092896,
                1
            ],
            "translation" : [
                3.749724864959717,
                0.9034271240234375,
                7.5868520070798695e-06
            ]
        },
        {
            "name" : "RightBall",
            "rotation" : [
                3.057970616282546e-06,
                -1.314765540882945e-05,
                0.2581718862056732,
                0.9660990238189697
            ],
            "scale" : [
                1,
                0.9999999403953552,
                1
            ],
            "translation" : [
                3.9402263164520264,
                -1.8201768398284912e-05,
                -1.3211800251156092e-05
            ]
        },
        {
            "children" : [
                10
            ],
            "name" : "RightHand",
            "rotation" : [
                -0.007612348534166813,
                -0.07550468295812607,
                0.12394125759601593,
                0.9893835186958313
            ],
            "scale" : [
                0.9999998807907104,
                0.9999999403953552,
                1
            ],
            "translation" : [
                10.42812442779541,
                -0.00011574379459489137,
                -0.0005543422303162515
            ]
        },
        {
            "children" : [
                11
            ],
            "name" : "RightForearm",
            "rotation" : [
                1.8887620854002307e-06,
                -2.5501625714241527e-05,
                0.250185489654541,
                0.9681979417800903
            ],
            "scale" : [
                1,
                0.9999999403953552,
                1.0000001192092896
            ],
            "translation" : [
                5.999027729034424,
                -0.46832287311553955,
                1.4940867004042957e-05
            ]
        },
        {
            "children" : [
                12
            ],
            "name" : "RightShoulder",
            "rotation" : [
                3.6197573081153678e-06,
                -4.09857057093177e-06,
                -0.981102466583252,
                0.19348903000354767
            ],
            "scale" : [
                1.000001311302185,
                1.0000001192092896,
                1
            ],
            "translation" : [
                0.5190839767456055,
                -2.7827227115631104,
                2.954551935195923
            ]
        },
        {
            "name" : "LeftBall",
            "rotation" : [
                1.38539394356485e-06,
                -4.306354739469498e-08,
                0.258182555437088,
                0.9660961627960205
            ],
            "scale" : [
                1,
                0.9999999403953552,
                1
            ],
            "translation" : [
                -3.9402129650115967,
                -8.708983659744263e-05,
                2.174043402192183e-06
            ]
        },
        {
            "children" : [
                14
            ],
            "name" : "LeftHand",
            "rotation" : [
                -0.007583987899124622,
                -0.0755293071269989,
                0.12393208593130112,
                0.9893829822540283
            ],
            "scale" : [
                0.9999999403953552,
                0.9999999403953552,
                0.9999999403953552
            ],
            "translation" : [
                -10.428110122680664,
                -3.220938378944993e-05,
                -6.681536615360528e-05
            ]
        },
        {
            "children" : [
                15
            ],
            "name" : "LeftForearm",
            "rotation" : [
                -6.948493478375894e-07,
                5.85792918172956e-07,
                0.2501870393753052,
                0.9681975841522217
            ],
            "scale" : [
                0.9999999403953552,
                0.9999999403953552,
                1
            ],
            "translation" : [
                -5.999020576477051,
                0.46816495060920715,
                -3.082587863900699e-05
            ]
        },
        {
            "children" : [
                16
            ],
            "name" : "LeftShoulder",
            "rotation" : [
                -8.57539703247312e-07,
                1.2980776773474645e-06,
                0.1934783160686493,
                0.9811045527458191
            ],
            "translation" : [
                0.519106388092041,
                -2.7827250957489014,
                -2.954554557800293
            ]
        },
        {
            "children" : [
                9,
                13,
                17
            ],
            "name" : "Chest2",
            "rotation" : [
                -5.883617291146948e-07,
                3.121801341876562e-07,
                0.2203308790922165,
                0.9754251837730408
            ],
            "scale" : [
                0.9999999403953552,
                1,
                1
            ],
            "translation" : [
                4.682427406311035,
                -0.4057990312576294,
                1.3111653970554471e-05
            ]
        },
        {
            "children" : [
                18
            ],
            "name" : "Chest1",
            "rotation" : [
                -4.907369088869018e-07,
                -1.1115472631217926e-07,
                0.20626488327980042,
                0.9784961938858032
            ],
            "translation" : [
                6.953902721405029,
                1.0430894690216519e-06,
                2.3263093680725433e-05
            ]
        },
        {
            "name" : "RightFoot",
            "rotation" : [
                0.07994429767131805,
                -0.04353950172662735,
                0.34792765974998474,
                0.933091402053833
            ],
            "translation" : [
                12.297141075134277,
                6.628036499023438e-05,
                0.00030291080474853516
            ]
        },
        {
            "children" : [
                20
            ],
            "name" : "RightLeg2",
            "rotation" : [
                -0.05773385241627693,
                -0.01666300557553768,
                0.7586488127708435,
                0.648722767829895
            ],
            "scale" : [
                0.9999999403953552,
                1,
                1
            ],
            "translation" : [
                2.869502305984497,
                3.950918436050415,
                -0.27938032150268555
            ]
        },
        {
            "children" : [
                21
            ],
            "name" : "RightLeg1",
            "rotation" : [
                0.09802085161209106,
                0.13518938422203064,
                -0.7542411684989929,
                0.635008692741394
            ],
            "scale" : [
                1,
                0.9999999403953552,
                1
            ],
            "translation" : [
                6.565103054046631,
                0.16721844673156738,
                0.4536789059638977
            ]
        },
        {
            "children" : [
                22
            ],
            "name" : "RightThigh",
            "rotation" : [
                -0.049332670867443085,
                -0.06760087609291077,
                -0.6656862497329712,
                0.741524338722229
            ],
            "scale" : [
                0.9999999403953552,
                0.9999999403953552,
                0.9999999403953552
            ],
            "translation" : [
                -0.09202436357736588,
                -0.04358137398958206,
                2.4987645149230957
            ]
        },
        {
            "name" : "LeftFoot",
            "rotation" : [
                0.07995184510946274,
                -0.043530773371458054,
                0.3479228913784027,
                0.9330929517745972
            ],
            "scale" : [
                1,
                0.9999999403953552,
                1
            ],
            "translation" : [
                -12.296915054321289,
                4.360079765319824e-05,
                1.0639429092407227e-05
            ]
        },
        {
            "children" : [
                24
            ],
            "name" : "LeftLeg2",
            "rotation" : [
                -0.05772945284843445,
                -0.0166670773178339,
                0.7586495876312256,
                0.6487220525741577
            ],
            "scale" : [
                1,
                1,
                0.9999998807907104
            ],
            "translation" : [
                -2.8694941997528076,
                -3.9509313106536865,
                0.2793843746185303
            ]
        },
        {
            "children" : [
                25
            ],
            "name" : "LeftLeg1",
            "rotation" : [
                0.0980294942855835,
                0.13519001007080078,
                -0.7542428374290466,
                0.6350052952766418
            ],
            "scale" : [
                1.0000001192092896,
                1.0000001192092896,
                1
            ],
            "translation" : [
                -6.565103530883789,
                -0.1671629250049591,
                -0.45365458726882935
            ]
        },
        {
            "children" : [
                26
            ],
            "name" : "LeftThigh",
            "rotation" : [
                0.06759104877710342,
                -0.04933728650212288,
                0.7415251731872559,
                0.6656858921051025
            ],
            "translation" : [
                -0.0920090302824974,
                -0.04357438534498215,
                -2.498755931854248
            ]
        },
        {
            "name" : "jiggle_tail1",
            "rotation" : [
                0.13817307353019714,
                0.680845320224762,
                0.1536843627691269,
                0.7026656270027161
            ],
            "scale" : [
                1,
                0.9999999403953552,
                1
            ],
            "translation" : [
                17.38725471496582,
                -0.1232975572347641,
                -1.3638064861297607
            ]
        },
        {
            "children" : [
                28
            ],
            "name" : "Tail3",
            "rotation" : [
                -7.490863254133728e-07,
                8.57417398947291e-06,
                0.42427417635917664,
                0.9055337905883789
            ],
            "scale" : [
                0.9999998807907104,
                0.9999999403953552,
                0.9999998807907104
            ],
            "translation" : [
                5.925247669219971,
                3.063995838165283,
                -0.9409075975418091
            ]
        },
        {
            "children" : [
                29
            ],
            "name" : "Tail2",
            "rotation" : [
                -0.016375644132494926,
                -0.1293390840291977,
                0.5079872608184814,
                0.8514413833618164
            ],
            "scale" : [
                1,
                1,
                1.0000001192092896
            ],
            "translation" : [
                11.263773918151855,
                -0.015601943247020245,
                -2.0501770973205566
            ]
        },
        {
            "children" : [
                30
            ],
            "name" : "Tail1",
            "rotation" : [
                0.0685032457113266,
                -0.0035083643160760403,
                0.9920005202293396,
                0.10597185790538788
            ],
            "scale" : [
                0.9999980926513672,
                1,
                0.9999999403953552
            ],
            "translation" : [
                -1.6045818328857422,
                2.6063075065612793,
                -3.7055542634334415e-08
            ]
        },
        {
            "children" : [
                19,
                23,
                27,
                31
            ],
            "name" : "Pelvis",
            "rotation" : [
                0.07366689294576645,
                -0.7032583355903625,
                -0.07366589456796646,
                0.7032597661018372
            ],
            "scale" : [
                0.9999999403953552,
                0.9999998807907104,
                0.9999998807907104
            ],
            "translation" : [
                0,
                25.42353630065918,
                -4.481350898742676
            ]
        },
        {
            "mesh" : 0,
            "name" : "mable_mesh",
            "skin" : 0
        },
        {
            "children" : [
                33,
                32
            ],
            "name" : "marble_skeleton"
        }
    ],
    "materials" : [
        {
            "alphaCutoff" : 0,
            "alphaMode" : "MASK",
            "extensions" : {
                "KHR_materials_specular" : {
                    "specularColorFactor" : [
                        0,
                        0,
                        0
                    ]
                },
                "KHR_materials_ior" : {
                    "ior" : 0
                }
            },
            "name" : "texture",
            "pbrMetallicRoughness" : {
                "baseColorTexture" : {
                    "index" : 0
                },
                "metallicFactor" : 0,
                "roughnessFactor" : 0
            }
        }
    ],
    "meshes" : [
        {
            "name" : "Plane.002",
            "primitives" : [
                {
                    "attributes" : {
                        "POSITION" : 0,
                        "TEXCOORD_0" : 1,
                        "NORMAL" : 2,
                        "JOINTS_0" : 3,
                        "WEIGHTS_0" : 4
                    },
                    "indices" : 5,
                    "material" : 0
                }
            ]
        }
    ],
    "textures" : [
        {
            "sampler" : 0,
            "source" : 0
        }
    ],
    "images" : [
        {
            "bufferView" : 6,
            "mimeType" : "image/png",
            "name" : "tex0"
        }
    ],
    "skins" : [
        {
            "inverseBindMatrices" : 6,
            "joints" : [
                32,
                19,
                18,
                9,
                8,
                1,
                0,
                3,
                2,
                5,
                4,
                7,
                6,
                13,
                12,
                11,
                10,
                17,
                16,
                15,
                14,
                23,
                22,
                21,
                20,
                27,
                26,
                25,
                24,
                31,
                30,
                29,
                28
            ],
            "name" : "marble_skeleton"
        }
    ],
    "accessors" : [
        {
            "bufferView" : 0,
            "componentType" : 5126,
            "count" : 507,
            "max" : [
                9.24341106414795,
                57.227481842041016,
                31.7764892578125
            ],
            "min" : [
                -10.017440795898438,
                0.22911888360977173,
                -24.326671600341797
            ],
            "type" : "VEC3"
        },
        {
            "bufferView" : 1,
            "componentType" : 5126,
            "count" : 507,
            "type" : "VEC2"
        },
        {
            "bufferView" : 2,
            "componentType" : 5126,
            "count" : 507,
            "type" : "VEC3"
        },
        {
            "bufferView" : 3,
            "componentType" : 5121,
            "count" : 507,
            "type" : "VEC4"
        },
        {
            "bufferView" : 4,
            "componentType" : 5126,
            "count" : 507,
            "type" : "VEC4"
        },
        {
            "bufferView" : 5,
            "componentType" : 5123,
            "count" : 2160,
            "type" : "SCALAR"
        },
        {
            "bufferView" : 7,
            "componentType" : 5126,
            "count" : 33,
            "type" : "MAT4"
        }
    ],
    "bufferViews" : [
        {
            "buffer" : 0,
            "byteLength" : 6084,
            "byteOffset" : 0,
            "target" : 34962
        },
        {
            "buffer" : 0,
            "byteLength" : 4056,
            "byteOffset" : 6084,
            "target" : 34962
        },
        {
            "buffer" : 0,
            "byteLength" : 6084,
            "byteOffset" : 10140,
            "target" : 34962
        },
        {
            "buffer" : 0,
            "byteLength" : 2028,
            "byteOffset" : 16224,
            "target" : 34962
        },
        {
            "buffer" : 0,
            "byteLength" : 8112,
            "byteOffset" : 18252,
            "target" : 34962
        },
        {
            "buffer" : 0,
            "byteLength" : 4320,
            "byteOffset" : 26364,
            "target" : 34963
        },
        {
            "buffer" : 0,
            "byteLength" : 12482,
            "byteOffset" : 30684
        },
        {
            "buffer" : 0,
            "byteLength" : 2112,
            "byteOffset" : 43168
        }
    ],
    "samplers" : [
        {
            "magFilter" : 9728,
            "minFilter" : 9984
        }
    ],
    "buffers" : [
        {
            "byteLength" : 45280,
            "uri" : "data:application/octet-stream;base64,"
        }
    ]
}
